<?xml version="1.0" standalone="no"?>
<!DOCTYPE svg PUBLIC "-//W3C//DTD SVG 20010904//EN"
 "http://www.w3.org/TR/2001/REC-SVG-20010904/DTD/svg10.dtd">
<svg version="1.0" xmlns="http://www.w3.org/2000/svg"
 width="500.000000pt" height="500.000000pt" viewBox="0 0 500.000000 500.000000"
 preserveAspectRatio="xMidYMid meet">

<g transform="translate(0.000000,500.000000) scale(0.100000,-0.100000)"
fill="#000000" stroke="none">
<path d="M1433 3676 c-96 -45 -147 -153 -123 -258 12 -53 20 -61 1004 -1046
545 -547 1011 -1008 1036 -1025 38 -27 56 -32 116 -35 56 -3 79 0 110 16 109
56 157 167 120 278 -15 45 -104 138 -1018 1051 -780 779 -1013 1007 -1048
1022 -62 28 -132 27 -197 -3z"/>
<path d="M3388 3682 c-22 -10 -151 -130 -319 -297 -301 -299 -321 -325 -321
-415 0 -90 20 -116 320 -414 155 -154 287 -283 294 -288 7 -4 35 -15 63 -23
98 -30 212 20 262 114 28 53 31 139 7 197 -11 25 -82 105 -202 227 l-186 187
181 183 c125 125 188 196 202 227 68 150 -40 320 -204 320 -35 0 -75 -8 -97
-18z"/>
<path d="M1434 2751 c-74 -34 -134 -126 -134 -208 0 -89 0 -89 570 -659 297
-296 555 -546 573 -556 110 -58 253 -10 314 105 25 47 22 151 -4 202 -13 24
-237 255 -550 567 -400 399 -539 532 -573 547 -57 26 -141 27 -196 2z"/>
<path d="M1430 1834 c-118 -51 -173 -202 -114 -316 22 -43 159 -180 202 -202
113 -58 256 -8 316 111 23 45 21 144 -3 191 -27 51 -178 198 -223 217 -47 19
-132 19 -178 -1z"/>
</g>
</svg>
